<svg width="1200" height="675" viewBox="0 0 1200 675" fill="none" xmlns="http://www.w3.org/2000/svg">
  <rect width="1200" height="675" rx="24" fill="#0b0b0f"/>
  <g filter="url(#f1)"><circle cx="260" cy="160" r="200" fill="#4F46E5" fill-opacity="0.25"/></g>
  <g filter="url(#f2)"><circle cx="980" cy="520" r="220" fill="#60A5FA" fill-opacity="0.25"/></g>
  <rect x="120" y="120" width="960" height="440" rx="16" fill="#111827" stroke="#1F2937"/>
  <rect x="160" y="160" width="360" height="24" rx="6" fill="#374151"/>
  <rect x="160" y="200" width="520" height="14" rx="4" fill="#2D3748"/>
  <rect x="160" y="290" width="360" height="220" rx="12" fill="#0F172A"/>
  <rect x="560" y="290" width="160" height="220" rx="12" fill="#0F172A"/>
  <rect x="760" y="290" width="320" height="220" rx="12" fill="#0F172A"/>
  <circle cx="640" cy="400" r="70" fill="#111827" stroke="#1F2937"/>
  <path d="M640 330 A70 70 0 1 1 639.9 330" stroke="#60A5FA" stroke-width="20" fill="none"/>
  <path d="M640 400 L690 400" stroke="#4F46E5" stroke-width="10"/>
  <defs>
    <filter id="f1" x="-80" y="-180" width="680" height="680" filterUnits="userSpaceOnUse"><feGaussianBlur stdDeviation="60"/></filter>
    <filter id="f2" x="640" y="180" width="680" height="680" filterUnits="userSpaceOnUse"><feGaussianBlur stdDeviation="60"/></filter>
  </defs>
</svg>

